<svg width="12" height="14" viewBox="0 0 12 14" fill="none" xmlns="http://www.w3.org/2000/svg">
<path fill-rule="evenodd" clip-rule="evenodd" d="M3 2.24932C3 2.44823 2.92099 2.639 2.78033 2.77965C2.63968 2.9203 2.44892 2.99932 2.25 2.99932C2.05109 2.99932 1.86033 2.9203 1.71967 2.77965C1.57902 2.639 1.5 2.44823 1.5 2.24932C1.5 2.05041 1.57902 1.85964 1.71967 1.71899C1.86033 1.57834 2.05109 1.49932 2.25 1.49932C2.44892 1.49932 2.63968 1.57834 2.78033 1.71899C2.92099 1.85964 3 2.05041 3 2.24932ZM3 4.37132C3.50042 4.1944 3.92217 3.84627 4.19073 3.38846C4.45929 2.93065 4.55735 2.39264 4.4676 1.86952C4.37785 1.3464 4.10605 0.871848 3.70025 0.529742C3.29445 0.187635 2.78077 0 2.25 0C1.71924 0 1.20556 0.187635 0.79976 0.529742C0.393958 0.871848 0.122161 1.3464 0.0324079 1.86952C-0.0573456 2.39264 0.0407231 2.93065 0.309281 3.38846C0.577839 3.84627 0.999594 4.1944 1.5 4.37132V5.24932C1.5 5.84606 1.73706 6.41835 2.15901 6.84031C2.58097 7.26227 3.15327 7.49932 3.75 7.49932H5.25V9.62732C4.74932 9.80425 4.3273 10.1525 4.05855 10.6105C3.78981 11.0685 3.69164 11.6068 3.78139 12.1302C3.87115 12.6536 4.14306 13.1284 4.54905 13.4707C4.95504 13.813 5.46897 14.0007 6 14.0007C6.53104 14.0007 7.04497 13.813 7.45096 13.4707C7.85695 13.1284 8.12886 12.6536 8.21862 12.1302C8.30837 11.6068 8.2102 11.0685 7.94146 10.6105C7.67271 10.1525 7.25069 9.80425 6.75 9.62732V7.49932H8.25C8.84674 7.49932 9.41904 7.26227 9.84099 6.84031C10.263 6.41835 10.5 5.84606 10.5 5.24932V4.37132C11.0004 4.1944 11.4222 3.84627 11.6907 3.38846C11.9593 2.93065 12.0574 2.39264 11.9676 1.86952C11.8778 1.3464 11.6061 0.871848 11.2002 0.529742C10.7944 0.187635 10.2808 0 9.75 0C9.21924 0 8.70556 0.187635 8.29976 0.529742C7.89396 0.871848 7.62216 1.3464 7.53241 1.86952C7.44265 2.39264 7.54072 2.93065 7.80928 3.38846C8.07784 3.84627 8.49959 4.1944 9 4.37132V5.24932C9 5.44823 8.92099 5.639 8.78033 5.77965C8.63968 5.9203 8.44892 5.99932 8.25 5.99932H3.75C3.55109 5.99932 3.36033 5.9203 3.21967 5.77965C3.07902 5.639 3 5.44823 3 5.24932V4.37132ZM6.75 11.7493C6.75 11.9482 6.67099 12.139 6.53033 12.2796C6.38968 12.4203 6.19892 12.4993 6 12.4993C5.80109 12.4993 5.61033 12.4203 5.46967 12.2796C5.32902 12.139 5.25 11.9482 5.25 11.7493C5.25 11.5504 5.32902 11.3596 5.46967 11.219C5.61033 11.0783 5.80109 10.9993 6 10.9993C6.19892 10.9993 6.38968 11.0783 6.53033 11.219C6.67099 11.3596 6.75 11.5504 6.75 11.7493ZM9.75 2.99932C9.94892 2.99932 10.1397 2.9203 10.2803 2.77965C10.421 2.639 10.5 2.44823 10.5 2.24932C10.5 2.05041 10.421 1.85964 10.2803 1.71899C10.1397 1.57834 9.94892 1.49932 9.75 1.49932C9.55109 1.49932 9.36033 1.57834 9.21968 1.71899C9.07902 1.85964 9 2.05041 9 2.24932C9 2.44823 9.07902 2.639 9.21968 2.77965C9.36033 2.9203 9.55109 2.99932 9.75 2.99932Z" fill="white"/>
</svg>
