<svg width="312" height="77" viewBox="0 0 312 77" fill="none" xmlns="http://www.w3.org/2000/svg">
<path d="M72.7684 19.4238C69.2809 13.4484 64.5504 8.71765 58.5755 5.23052C52.5998 1.74321 46.076 0 38.9996 0C31.9242 0 25.3983 1.74374 19.4238 5.23052C13.4484 8.71748 8.71801 13.4484 5.23052 19.4238C1.74357 25.399 0 31.924 0 38.9986C0 47.4968 2.47937 55.1385 7.43937 61.9259C12.3988 68.7137 18.8057 73.4107 26.6595 76.0172C27.5737 76.1869 28.2505 76.0676 28.6905 75.6622C29.1307 75.2563 29.3505 74.748 29.3505 74.1394C29.3505 74.0378 29.3418 73.1241 29.3249 71.3973C29.3075 69.6704 29.2993 68.164 29.2993 66.8786L28.1313 67.0806C27.3866 67.217 26.4471 67.2748 25.3129 67.2585C24.1792 67.2426 23.0023 67.1238 21.7838 66.9029C20.5648 66.684 19.4309 66.1762 18.3813 65.3806C17.3323 64.5851 16.5876 63.5437 16.1474 62.2581L15.6396 61.0896C15.3012 60.3116 14.7683 59.4474 14.0403 58.5001C13.3123 57.5519 12.5762 56.9091 11.8315 56.5707L11.4759 56.3161C11.239 56.147 11.0192 55.943 10.8159 55.7063C10.6128 55.4695 10.4607 55.2326 10.3591 54.9954C10.2574 54.7579 10.3417 54.5632 10.6129 54.4104C10.8842 54.2576 11.3744 54.1834 12.0856 54.1834L13.1008 54.3351C13.778 54.4708 14.6155 54.8762 15.6145 55.5537C16.6131 56.2306 17.4339 57.1106 18.0772 58.1935C18.8562 59.5818 19.7948 60.6398 20.8956 61.3677C21.9955 62.0957 23.1044 62.4591 24.2214 62.4591C25.3384 62.4591 26.3031 62.3744 27.1159 62.206C27.9278 62.0367 28.6896 61.7822 29.4009 61.4439C29.7055 59.1747 30.5351 57.4315 31.8888 56.213C29.9594 56.0102 28.2247 55.7048 26.6839 55.2988C25.144 54.8922 23.5526 54.2323 21.911 53.3174C20.2684 52.4037 18.9059 51.2692 17.8229 49.9157C16.7397 48.5614 15.8507 46.7835 15.1573 44.5836C14.4634 42.3827 14.1164 39.8439 14.1164 36.9665C14.1164 32.8695 15.4539 29.3831 18.1284 26.5053C16.8756 23.4251 16.9939 19.9721 18.4836 16.1467C19.4654 15.8417 20.9214 16.0706 22.8508 16.832C24.7806 17.5938 26.1935 18.2464 27.091 18.7874C27.9885 19.3283 28.7076 19.7866 29.2493 20.1584C32.3984 19.2785 35.648 18.8384 38.9993 18.8384C42.3505 18.8384 45.6009 19.2785 48.7501 20.1584L50.6797 18.9402C51.9993 18.1274 53.5575 17.3825 55.3507 16.7054C57.145 16.0286 58.517 15.8422 59.4653 16.1472C60.9882 19.9728 61.1239 23.4256 59.8707 26.5058C62.545 29.3836 63.883 32.8709 63.883 36.9671C63.883 39.8445 63.5348 42.3913 62.842 44.609C62.1484 46.8271 61.2518 48.6032 60.1519 49.9411C59.0507 51.2788 57.6794 52.4045 56.0378 53.318C54.3958 54.2322 52.8039 54.892 51.264 55.2986C49.7234 55.7052 47.9887 56.0108 46.0593 56.2139C47.819 57.7367 48.6991 60.1405 48.6991 63.4242V74.1379C48.6991 74.7466 48.9107 75.2547 49.3344 75.6608C49.7575 76.0661 50.4258 76.1855 51.34 76.0156C59.1948 73.4094 65.6017 68.7123 70.561 61.9244C75.5197 55.1371 78 47.4953 78 38.9972C77.9982 31.9235 76.2538 25.399 72.7684 19.4238Z" fill="white"/>
<path d="M137.749 52.0816C136.349 53.2714 134.789 54.1882 133.067 54.8321C131.345 55.462 129.554 55.7769 127.692 55.7769C126.264 55.7769 124.885 55.588 123.556 55.2101C122.24 54.8461 121.008 54.3282 119.86 53.6563C118.713 52.9705 117.663 52.1586 116.711 51.2208C115.759 50.269 114.947 49.2192 114.275 48.0714C113.604 46.9096 113.079 45.6638 112.701 44.3341C112.337 43.0043 112.155 41.6256 112.155 40.1978C112.155 38.7701 112.337 37.3984 112.701 36.0826C113.079 34.7669 113.604 33.5351 114.275 32.3873C114.947 31.2255 115.759 30.1757 116.711 29.2379C117.663 28.2861 118.713 27.4742 119.86 26.8023C121.008 26.1305 122.24 25.6126 123.556 25.2486C124.885 24.8707 126.264 24.6817 127.692 24.6817C129.554 24.6817 131.345 25.0037 133.067 25.6476C134.789 26.2774 136.349 27.1873 137.749 28.377L134.6 33.6261C133.69 32.7022 132.64 31.9814 131.45 31.4635C130.26 30.9316 129.008 30.6656 127.692 30.6656C126.376 30.6656 125.137 30.9176 123.976 31.4215C122.828 31.9254 121.82 32.6113 120.952 33.4791C120.084 34.3329 119.398 35.3407 118.895 36.5025C118.391 37.6503 118.139 38.8821 118.139 40.1978C118.139 41.5276 118.391 42.7734 118.895 43.9352C119.398 45.0969 120.084 46.1117 120.952 46.9796C121.82 47.8474 122.828 48.5333 123.976 49.0372C125.137 49.5411 126.376 49.7931 127.692 49.7931C128.448 49.7931 129.183 49.7021 129.896 49.5201C130.61 49.3381 131.289 49.0862 131.933 48.7643V40.1978H137.749V52.0816Z" fill="white"/>
<path d="M147.302 55.1261H141.57V32.6393H142.956L144.846 35.3058C145.77 34.4659 146.819 33.822 147.995 33.3741C149.171 32.9122 150.389 32.6812 151.648 32.6812H156.708V38.3922H151.648C151.047 38.3922 150.48 38.5042 149.948 38.7281C149.416 38.9521 148.954 39.26 148.562 39.6519C148.17 40.0439 147.862 40.5058 147.638 41.0377C147.414 41.5696 147.302 42.1365 147.302 42.7384V55.1261Z" fill="white"/>
<path d="M180.728 55.1261H179.342L177.117 52.0396C176.571 52.5296 175.99 52.9915 175.374 53.4254C174.772 53.8453 174.135 54.2162 173.463 54.5382C172.792 54.8461 172.099 55.0911 171.385 55.273C170.685 55.455 169.971 55.546 169.243 55.546C167.661 55.546 166.171 55.28 164.771 54.7481C163.385 54.2162 162.167 53.4464 161.118 52.4386C160.082 51.4168 159.263 50.171 158.661 48.7013C158.059 47.2315 157.758 45.5588 157.758 43.6832C157.758 41.9335 158.059 40.3308 158.661 38.8751C159.263 37.4054 160.082 36.1456 161.118 35.0958C162.167 34.046 163.385 33.2341 164.771 32.6602C166.171 32.0724 167.661 31.7784 169.243 31.7784C169.971 31.7784 170.692 31.8694 171.406 32.0514C172.12 32.2333 172.812 32.4853 173.484 32.8072C174.156 33.1292 174.793 33.5071 175.395 33.941C176.011 34.3749 176.585 34.8438 177.117 35.3477L179.342 32.6812H180.728V55.1261ZM174.954 43.6832C174.954 42.8993 174.8 42.1435 174.492 41.4156C174.198 40.6738 173.792 40.0229 173.274 39.463C172.757 38.8891 172.148 38.4342 171.448 38.0982C170.762 37.7483 170.027 37.5733 169.243 37.5733C168.459 37.5733 167.717 37.7063 167.018 37.9723C166.332 38.2382 165.73 38.6301 165.212 39.148C164.708 39.6659 164.309 40.3098 164.015 41.0797C163.721 41.8355 163.574 42.7034 163.574 43.6832C163.574 44.663 163.721 45.5379 164.015 46.3077C164.309 47.0636 164.708 47.7004 165.212 48.2184C165.73 48.7363 166.332 49.1282 167.018 49.3941C167.717 49.6601 168.459 49.7931 169.243 49.7931C170.027 49.7931 170.762 49.6251 171.448 49.2892C172.148 48.9392 172.757 48.4843 173.274 47.9244C173.792 47.3505 174.198 46.6996 174.492 45.9718C174.8 45.2299 174.954 44.4671 174.954 43.6832Z" fill="white"/>
<path d="M190.89 63.6925H185.116V32.6393H186.502L188.791 35.3477C189.308 34.8578 189.875 34.3959 190.491 33.962C191.107 33.5281 191.744 33.1572 192.402 32.8492C193.074 32.5273 193.767 32.2753 194.48 32.0934C195.194 31.9114 195.915 31.8204 196.643 31.8204C198.225 31.8204 199.708 32.1074 201.094 32.6812C202.494 33.2411 203.712 34.039 204.748 35.0748C205.797 36.1106 206.623 37.3634 207.225 38.8331C207.827 40.2888 208.128 41.9055 208.128 43.6832C208.128 45.5309 207.827 47.1965 207.225 48.6803C206.623 50.15 205.797 51.4028 204.748 52.4386C203.712 53.4604 202.494 54.2442 201.094 54.7901C199.708 55.336 198.225 55.609 196.643 55.609C196.139 55.609 195.635 55.553 195.131 55.441C194.641 55.329 194.152 55.1821 193.662 55.0001C193.186 54.8041 192.71 54.5872 192.234 54.3492C191.772 54.1113 191.324 53.8663 190.89 53.6143V63.6925ZM202.375 43.6832C202.375 42.7314 202.221 41.8775 201.913 41.1217C201.619 40.3658 201.213 39.7289 200.695 39.211C200.177 38.6791 199.569 38.2732 198.869 37.9933C198.169 37.7133 197.427 37.5733 196.643 37.5733C195.859 37.5733 195.117 37.7133 194.417 37.9933C193.732 38.2732 193.13 38.6791 192.612 39.211C192.094 39.7289 191.681 40.3658 191.373 41.1217C191.079 41.8775 190.932 42.7314 190.932 43.6832C190.932 44.593 191.079 45.4259 191.373 46.1817C191.681 46.9376 192.094 47.5815 192.612 48.1134C193.13 48.6453 193.732 49.0582 194.417 49.3521C195.117 49.6461 195.859 49.7931 196.643 49.7931C197.427 49.7931 198.169 49.6461 198.869 49.3521C199.569 49.0582 200.177 48.6453 200.695 48.1134C201.213 47.5815 201.619 46.9376 201.913 46.1817C202.221 45.4259 202.375 44.593 202.375 43.6832Z" fill="white"/>
<path d="M217.051 55.1261H211.319V23.6949H217.051V33.6261C217.737 33.1082 218.444 32.7442 219.172 32.5343C219.9 32.3103 220.642 32.1983 221.397 32.1983C222.783 32.1983 224.085 32.4643 225.303 32.9962C226.521 33.5141 227.577 34.235 228.473 35.1588C229.383 36.0686 230.097 37.1394 230.615 38.3712C231.147 39.589 231.413 40.8907 231.413 42.2765V55.1261H225.639V42.2765H225.681C225.681 41.6886 225.569 41.1357 225.345 40.6178C225.121 40.0859 224.813 39.624 224.421 39.232C224.029 38.8401 223.574 38.5322 223.056 38.3082C222.538 38.0842 221.985 37.9723 221.397 37.9723C220.796 37.9723 220.229 38.0842 219.697 38.3082C219.165 38.5322 218.703 38.8401 218.311 39.232C217.919 39.624 217.611 40.0859 217.387 40.6178C217.163 41.1357 217.051 41.6886 217.051 42.2765V55.1261Z" fill="white"/>
<path d="M242.142 55.1261H236.116V25.0177H242.142V37.0694H254.172V25.0177H260.198V55.1261H254.172V43.0953H242.142V55.1261Z" fill="white"/>
<path d="M281.425 52.5016C280.963 52.9215 280.466 53.3204 279.935 53.6983C279.417 54.0623 278.871 54.3842 278.297 54.6642C277.723 54.9301 277.128 55.1401 276.512 55.294C275.91 55.462 275.294 55.546 274.665 55.546C273.279 55.546 271.977 55.301 270.759 54.8111C269.542 54.3212 268.471 53.6283 267.547 52.7325C266.637 51.8227 265.916 50.7239 265.384 49.4361C264.866 48.1344 264.607 46.6786 264.607 45.0689V32.6393H270.318V45.0689C270.318 45.8248 270.43 46.5037 270.654 47.1056C270.892 47.6935 271.207 48.1904 271.599 48.5963C271.991 49.0022 272.446 49.3102 272.964 49.5201C273.496 49.7301 274.063 49.8351 274.665 49.8351C275.252 49.8351 275.805 49.7021 276.323 49.4361C276.855 49.1562 277.317 48.7922 277.709 48.3443C278.101 47.8964 278.409 47.3925 278.633 46.8326C278.857 46.2587 278.969 45.6708 278.969 45.0689V32.6393H284.701V55.1261H283.315L281.425 52.5016Z" fill="white"/>
<path d="M311.597 43.6832C311.597 45.4469 311.296 47.0566 310.694 48.5123C310.092 49.968 309.273 51.2208 308.237 52.2706C307.201 53.3064 305.984 54.1113 304.584 54.6852C303.198 55.259 301.708 55.546 300.112 55.546C298.53 55.546 297.039 55.252 295.64 54.6642C294.254 54.0763 293.036 53.2574 291.986 52.2076C290.951 51.1578 290.132 49.912 289.53 48.4703C288.928 47.0146 288.627 45.4189 288.627 43.6832V23.6949H294.38V34.193C294.688 33.801 295.059 33.4511 295.493 33.1432C295.941 32.8352 296.417 32.5833 296.92 32.3873C297.438 32.1913 297.97 32.0444 298.516 31.9464C299.062 31.8344 299.594 31.7784 300.112 31.7784C301.708 31.7784 303.198 32.0794 304.584 32.6812C305.984 33.2691 307.201 34.095 308.237 35.1588C309.273 36.2226 310.092 37.4824 310.694 38.9381C311.296 40.3798 311.597 41.9615 311.597 43.6832ZM305.823 43.6832C305.823 42.8154 305.669 42.0105 305.361 41.2686C305.067 40.5128 304.661 39.8619 304.143 39.316C303.625 38.7701 303.016 38.3432 302.316 38.0352C301.631 37.7273 300.896 37.5733 300.112 37.5733C299.328 37.5733 298.586 37.7483 297.886 38.0982C297.2 38.4342 296.598 38.8891 296.081 39.463C295.563 40.0229 295.157 40.6738 294.863 41.4156C294.569 42.1435 294.422 42.8993 294.422 43.6832C294.422 44.551 294.569 45.3559 294.863 46.0977C295.157 46.8396 295.563 47.4835 296.081 48.0294C296.598 48.5753 297.2 49.0092 297.886 49.3311C298.586 49.6391 299.328 49.7931 300.112 49.7931C300.896 49.7931 301.631 49.6391 302.316 49.3311C303.016 49.0092 303.625 48.5753 304.143 48.0294C304.661 47.4835 305.067 46.8396 305.361 46.0977C305.669 45.3559 305.823 44.551 305.823 43.6832Z" fill="white"/>
</svg>
