<svg width="15" height="15" viewBox="0 0 15 15" fill="none" xmlns="http://www.w3.org/2000/svg">
<path fill-rule="evenodd" clip-rule="evenodd" d="M7.3238 0.25C7.4622 0.249911 7.59786 0.288565 7.71543 0.361587C7.833 0.43461 7.92778 0.539085 7.98905 0.663188L9.84938 4.43426L14.0109 5.03922C14.1478 5.05909 14.2764 5.11686 14.3821 5.20599C14.4879 5.29512 14.5666 5.41205 14.6094 5.54358C14.6521 5.6751 14.6573 5.81597 14.6242 5.95026C14.5911 6.08455 14.5211 6.2069 14.4221 6.30349L11.4112 9.2393L12.1219 13.383C12.1453 13.5194 12.1302 13.6596 12.0781 13.7877C12.026 13.9159 11.9391 14.0269 11.8272 14.1083C11.7153 14.1896 11.5829 14.238 11.4449 14.2481C11.3069 14.2581 11.1689 14.2293 11.0464 14.1649L7.3238 12.2077L3.60116 14.1649C3.47877 14.2292 3.34085 14.2579 3.20298 14.248C3.06511 14.238 2.93278 14.1897 2.82092 14.1084C2.70907 14.0272 2.62215 13.9163 2.56998 13.7883C2.51781 13.6603 2.50247 13.5203 2.52568 13.384L3.23739 9.23831L0.224485 6.30349C0.125208 6.20694 0.0549591 6.08451 0.021699 5.95008C-0.011561 5.81564 -0.00650242 5.67458 0.0363017 5.54288C0.0791057 5.41117 0.157944 5.29409 0.263882 5.2049C0.369821 5.11571 0.498624 5.05797 0.635696 5.03823L4.79722 4.43426L6.65854 0.663188C6.71981 0.539085 6.81459 0.43461 6.93216 0.361587C7.04973 0.288565 7.18539 0.249911 7.3238 0.25ZM7.3238 2.66685L5.95474 5.43955C5.90158 5.5472 5.82306 5.64033 5.72595 5.71092C5.62884 5.78152 5.51603 5.82747 5.39724 5.84483L2.33589 6.28965L4.5501 8.44851C4.63625 8.53239 4.7007 8.63598 4.7379 8.75032C4.7751 8.86467 4.78392 8.98635 4.76362 9.10486L4.24169 12.1534L6.97881 10.7141C7.0852 10.6582 7.2036 10.629 7.3238 10.629C7.44399 10.629 7.56239 10.6582 7.66878 10.7141L10.4069 12.1534L9.88299 9.10486C9.86268 8.98635 9.87151 8.86467 9.9087 8.75032C9.9459 8.63598 10.0104 8.53239 10.0965 8.44851L12.3107 6.29064L9.25036 5.84582C9.13156 5.82846 9.01875 5.78251 8.92164 5.71191C8.82453 5.64131 8.74602 5.54819 8.69285 5.44054L7.3238 2.66586V2.66685Z" fill="white"/>
</svg>
